<?xml version="1.0" encoding="utf-8"?>
<!-- Generator: Adobe Illustrator 16.0.0, SVG Export Plug-In . SVG Version: 6.00 Build 0)  -->
<!DOCTYPE svg PUBLIC "-//W3C//DTD SVG 1.1//EN" "http://www.w3.org/Graphics/SVG/1.1/DTD/svg11.dtd">
<svg version="1.1" id="Capa_1" xmlns="http://www.w3.org/2000/svg" xmlns:xlink="http://www.w3.org/1999/xlink" x="0px" y="0px"
	 width="79.537px" height="79.536px" viewBox="0 0 79.537 79.536" enable-background="new 0 0 79.537 79.536" xml:space="preserve">
<g>
	<path fill="#010002" d="M17.971,15.553c1.522,0,2.827-0.5,3.839-1.543c1.043-1.067,1.589-2.393,1.589-3.993
		c0-1.522-0.546-2.827-1.589-3.904c-1.007-1.108-2.317-1.66-3.839-1.66c-1.621,0-2.965,0.552-4.083,1.66
		c-1.083,1.072-1.616,2.382-1.616,3.904c0,1.6,0.533,2.925,1.621,3.993C15.012,15.053,16.355,15.553,17.971,15.553z"/>
	<path fill="#010002" d="M64.089,15.553c1.518,0,2.857-0.5,3.936-1.543c1.078-1.072,1.627-2.397,1.627-3.993
		c0-1.522-0.555-2.827-1.631-3.904c-1.082-1.108-2.418-1.66-3.932-1.66c-1.595,0-2.936,0.552-3.945,1.66
		c-1.076,1.077-1.584,2.382-1.584,3.904c0,1.6,0.508,2.925,1.584,3.993C61.159,15.053,62.5,15.553,64.089,15.553z"/>
	<path fill="#010002" d="M75.29,19.1c-1.378-1.396-3.029-2.11-5.055-2.11H57.876v-0.006c-1.947,0-3.615,0.72-5.023,2.11
		c-1.412,1.453-2.139,3.143-2.139,5.025v17.399c0,0.652,0.223,1.242,0.727,1.719c0.465,0.471,1.045,0.684,1.703,0.684
		c0.756,0,1.336-0.213,1.801-0.684c0.404-0.477,0.617-1.066,0.617-1.719V25.96h1.258v43.074c0,0.829,0.363,1.596,1.052,2.186
		c0.647,0.652,1.403,0.933,2.272,0.933c0.942,0,1.698-0.278,2.314-0.933c0.652-0.59,0.947-1.355,0.947-2.186V44.065h1.408v24.969
		c0,0.829,0.326,1.596,0.938,2.186c0.616,0.652,1.413,0.933,2.388,0.933c0.827,0,1.553-0.278,2.205-0.933
		c0.611-0.59,0.891-1.355,0.891-2.186V25.96h1.315v15.558c0,0.652,0.207,1.242,0.642,1.719c0.519,0.471,1.119,0.684,1.771,0.684
		c0.766,0,1.346-0.213,1.781-0.684c0.393-0.477,0.643-1.066,0.643-1.719V24.12C77.388,22.243,76.703,20.547,75.29,19.1z"/>
	<path fill="#010002" d="M32.79,36.734c-0.284-1.079-0.688-2.42-1.149-3.981c-0.435-1.585-0.976-3.301-1.491-5.142
		c-0.503-1.851-1.012-3.632-1.51-5.349c-0.465-1.316-1.299-2.509-2.459-3.55c-1.193-1.074-2.529-1.563-3.904-1.563h-8.891
		c-1.33,0-2.604,0.489-3.829,1.563c-1.23,1.036-2.025,2.235-2.387,3.55c-0.614,1.717-1.114,3.498-1.66,5.349
		c-0.534,1.841-1.044,3.557-1.515,5.142c-0.473,1.56-0.865,2.902-1.157,3.981c-0.254,1.088-0.471,1.729-0.546,1.916
		c-0.106,0.218-0.143,0.435-0.143,0.699c0,0.966,0.511,1.644,1.559,2.032l0.572,0.138c1.124,0,1.841-0.524,2.17-1.608
		c0.036-0.354,0.398-1.392,0.937-3.031c0.474-1.66,1.02-3.385,1.512-5.202c0.547-1.826,1.245-4.127,2.074-6.988h1.3L4.715,50.211
		h7.264v19.388c0,0.762,0.249,1.394,0.79,1.851c0.505,0.475,1.157,0.702,1.921,0.702c0.756,0,1.372-0.228,1.843-0.702
		c0.472-0.457,0.723-1.089,0.723-1.851V50.211h1.31V69.6c0,0.762,0.213,1.395,0.684,1.85c0.497,0.475,1.082,0.703,1.877,0.703
		c0.753,0,1.367-0.227,1.877-0.703c0.578-0.455,0.795-1.088,0.795-1.85V50.213h7.148L23.4,24.685h1.305
		c0.828,2.866,1.506,5.173,2.084,6.993c0.577,1.818,1.092,3.542,1.597,5.202c0.427,1.638,0.751,2.677,0.831,3.031
		c0.288,1.082,1.013,1.608,2.165,1.608l0.533-0.146c1.046-0.301,1.592-0.983,1.592-2.151l-0.142-0.572
		C33.264,38.463,33.078,37.822,32.79,36.734z"/>
</g>
<g>
	<circle fill="#010002" cx="42.128" cy="23.292" r="3"/>
</g>
<g>
	<circle fill="#010002" cx="42.128" cy="42.651" r="3"/>
</g>
</svg>
