<?xml version="1.0" encoding="utf-8"?>
<!-- Generator: Adobe Illustrator 16.0.0, SVG Export Plug-In . SVG Version: 6.00 Build 0)  -->
<!DOCTYPE svg PUBLIC "-//W3C//DTD SVG 1.1//EN" "http://www.w3.org/Graphics/SVG/1.1/DTD/svg11.dtd">
<svg version="1.1" id="Layer_1" xmlns="http://www.w3.org/2000/svg" xmlns:xlink="http://www.w3.org/1999/xlink" x="0px" y="0px"
	 width="566.929px" height="566.929px" viewBox="0 0 566.929 566.929" enable-background="new 0 0 566.929 566.929"
	 xml:space="preserve">
<g id="Layer_1_1_">
	<g>
		<path fill="#29201F" d="M367.14,447.293c-0.748,5.962-36.582,12.12-81.713,12.12c-45.128,0-80.84-6.161-81.709-12.12
			c-2.109-14.446,37.423-15.223,82.549-15.223C331.396,432.071,368.828,433.879,367.14,447.293z"/>
		<path fill="#C7C7C7" d="M366.718,442.131c0,5.985-36.393,10.833-81.291,10.833c-44.895,0-81.292-4.848-81.292-10.833
			c0-5.982,36.395-10.832,81.292-10.832C330.326,431.299,366.718,436.149,366.718,442.131z"/>
	</g>
	<g>
		<path fill="#29201F" d="M367.14,447.293c-0.748,5.962-36.582,12.12-81.713,12.12c-45.128,0-80.84-6.161-81.709-12.12
			c-2.109-14.446,37.423-15.223,82.549-15.223C331.396,432.071,368.828,433.879,367.14,447.293z"/>
		<path fill="#171717" d="M366.718,442.131c0,5.985-36.393,10.833-81.291,10.833c-44.895,0-81.292-4.848-81.292-10.833
			c0-5.982,36.395-10.832,81.292-10.832C330.326,431.299,366.718,436.149,366.718,442.131z"/>
	</g>
	<g>
		<rect x="250.562" y="148.613" fill="#171717" width="15.161" height="296.613"/>
		<rect x="243.018" y="174.92" fill="#171717" width="30.253" height="5.527"/>
		<rect x="243.018" y="184.335" fill="#171717" width="30.253" height="5.528"/>
	</g>
	<g>
		<rect x="308.687" y="148.613" fill="#171717" width="15.162" height="296.613"/>
		<rect x="301.143" y="174.92" fill="#171717" width="30.251" height="5.527"/>
		<rect x="301.143" y="184.335" fill="#171717" width="30.251" height="5.528"/>
	</g>
	<g>
		<rect x="229.606" y="145.776" fill="#171717" width="3.158" height="29.403"/>
		<ellipse fill="#171717" cx="231.185" cy="175.502" rx="4.738" ry="2.901"/>
	</g>
	<path d="M295.945,80.778c0,2.422-3.205,4.384-7.162,4.384l0,0c-3.953,0-7.16-1.962-7.16-4.384v-5.673
		c0-2.422,3.207-4.385,7.16-4.385l0,0c3.957,0,7.162,1.963,7.162,4.385V80.778z"/>
	<path d="M374.289,146.549l-11.793-67.06l-149.95-1.032l-16.003,66.545C196.543,145.002,268.987,163.573,374.289,146.549"/>
	<polygon fill="none" points="773.935,473.964 -211.803,473.964 -329.065,31.389 656.671,31.389 	"/>
</g>
<g id="Layer_3">
</g>
<g id="Layer_2" display="none">
	<g display="inline">
		<g>
			<defs>
				<polygon id="SVGID_1_" points="654.591,548.683 -81.871,548.683 -169.48,8.711 566.982,8.711 				"/>
			</defs>
			<clipPath id="SVGID_2_">
				<use xlink:href="#SVGID_1_"  overflow="visible"/>
			</clipPath>
			<g clip-path="url(#SVGID_2_)">
				<g>
					<g>
						<path fill="#29201F" d="M350.669,516.14c-0.561,7.277-27.332,14.789-61.051,14.789c-33.717,0-60.397-7.518-61.048-14.789
							c-1.575-17.625,27.96-18.568,61.675-18.568C323.962,497.572,351.929,499.777,350.669,516.14z"/>
						<path fill="#C7C7C7" d="M350.353,509.845c0,7.303-27.189,13.215-60.732,13.215c-33.543,0-60.735-5.912-60.735-13.215
							c0-7.299,27.191-13.219,60.735-13.219C323.164,496.626,350.353,502.546,350.353,509.845z"/>
					</g>
					<g>
						<path fill="#29201F" d="M350.669,516.14c-0.561,7.277-27.332,14.789-61.051,14.789c-33.717,0-60.397-7.518-61.048-14.789
							c-1.575-17.625,27.96-18.568,61.675-18.568C323.962,497.572,351.929,499.777,350.669,516.14z"/>
						<path fill="#C7C7C7" d="M350.353,509.845c0,7.303-27.189,13.215-60.732,13.215c-33.543,0-60.735-5.912-60.735-13.215
							c0-7.299,27.191-13.219,60.735-13.219C323.164,496.626,350.353,502.546,350.353,509.845z"/>
					</g>
					<g>
						<g>
							<rect x="263.57" y="151.732" width="11.327" height="361.889"/>
							<rect x="257.934" y="183.828" width="22.603" height="6.743"/>
							<rect x="257.934" y="195.316" width="22.603" height="6.745"/>
						</g>
						<g>
							<rect x="306.998" y="151.732" width="11.328" height="361.889"/>
							<rect x="301.359" y="183.828" width="22.602" height="6.743"/>
							<rect x="301.359" y="195.316" width="22.602" height="6.745"/>
						</g>
						<g>
							<rect x="247.914" y="148.271" width="2.359" height="35.874"/>
							<circle cx="249.093" cy="184.538" r="3.54"/>
						</g>
						<path d="M297.478,68.969c0,2.955-2.396,5.35-5.352,5.35l0,0c-2.953,0-5.351-2.395-5.351-5.35v-6.922
							c0-2.955,2.396-5.35,5.351-5.35l0,0c2.955,0,5.352,2.395,5.352,5.35V68.969z"/>
						<path fill="#C6C6C6" d="M235.168,66.137l-11.956,81.19c0,0,54.124,22.657,132.797,1.888l-8.811-81.819L235.168,66.137z"/>
					</g>
				</g>
				<g>
					<g>
						<path fill="#29201F" d="M-20.813,516.31"/>
						<path fill="#C7C7C7" d="M-20.491,510.087"/>
					</g>
				</g>
				<g>
					<g>
						<path fill="#29201F" d="M512.443,517.031c-0.439,6.842-21.414,13.896-47.83,13.896c-26.414,0-47.316-7.062-47.826-13.896
							c-1.234-16.564,21.906-17.453,48.32-17.453C491.525,499.578,513.429,501.65,512.443,517.031z"/>
						<ellipse fill="#C7C7C7" cx="464.615" cy="511.114" rx="47.582" ry="12.423"/>
					</g>
					<rect x="459.396" y="92.467" width="10.646" height="420.121"/>
					<path fill="#616161" d="M416.363,108.438c0,0,0.889,70.095-7.986,81.63H521.06c0,0-9.76-71.87-7.096-80.743
						C513.964,109.325,474.037,92.467,416.363,108.438z"/>
					<ellipse cx="464.72" cy="233.987" rx="15.973" ry="19.964"/>
					<ellipse cx="464.72" cy="212.25" rx="8.43" ry="5.385"/>
				</g>
			</g>
		</g>
	</g>
	<path display="inline" fill="#29201F" d="M48.577,518.404c-1.62-17.424,28.775-18.355,63.474-18.355
		c34.696,0,63.472,2.18,62.18,18.355c-0.577,7.193-28.131,14.617-62.829,14.617C76.704,533.021,49.247,525.589,48.577,518.404"/>
	<path display="inline" fill="#C7C7C7" d="M48.9,512.181c0-7.217,27.984-13.066,62.501-13.066c34.519,0,62.505,5.852,62.505,13.066
		c0,7.217-27.986,13.062-62.505,13.062C76.884,525.244,48.9,519.396,48.9,512.181"/>
	<rect x="104.105" y="376.55" display="inline" fill="#29201F" width="11.199" height="137.188"/>
	<path display="inline" d="M138.635,406.416H77.041c-55.06-130.651,0-298.633,0-298.633h61.594
		C138.635,107.782,202.094,284.162,138.635,406.416z"/>
	<polyline display="inline" points="127.09,393.261 127.09,429.134 124.73,429.134 124.73,393.261 	"/>
	<path display="inline" d="M125.909,433.068c-1.954,0-3.539-1.584-3.539-3.541c0-1.955,1.585-3.539,3.539-3.539
		c1.955,0,3.54,1.584,3.54,3.539C129.449,431.484,127.864,433.068,125.909,433.068"/>
</g>
</svg>
