<?xml version="1.0" encoding="utf-8"?>
<!-- Generator: Adobe Illustrator 16.0.0, SVG Export Plug-In . SVG Version: 6.00 Build 0)  -->
<!DOCTYPE svg PUBLIC "-//W3C//DTD SVG 1.1//EN" "http://www.w3.org/Graphics/SVG/1.1/DTD/svg11.dtd">
<svg version="1.1" xmlns="http://www.w3.org/2000/svg" xmlns:xlink="http://www.w3.org/1999/xlink" x="0px" y="0px"
	 width="841.89px" height="595.28px" viewBox="0 0 841.89 595.28" enable-background="new 0 0 841.89 595.28" xml:space="preserve">
<g id="Layer_1" display="none">
	<path display="inline" fill="#29201F" d="M478.496,508.486c-0.576,7.194-28.131,14.618-62.829,14.618
		c-34.698,0-62.155-7.432-62.824-14.618c-1.62-17.423,28.775-18.355,63.474-18.355C451.014,490.131,479.789,492.311,478.496,508.486
		"/>
	<path display="inline" fill="#C7C7C7" d="M478.172,502.264c0,7.217-27.986,13.063-62.504,13.063
		c-34.518,0-62.501-5.847-62.501-13.063c0-7.216,27.984-13.066,62.501-13.066C450.186,489.197,478.172,495.048,478.172,502.264"/>
	<rect x="408.372" y="366.634" display="inline" fill="#29201F" width="11.199" height="137.187"/>
	<path display="inline" d="M442.9,396.498h-61.593c-55.06-130.651,0-298.633,0-298.633H442.9
		C442.9,97.865,506.359,274.244,442.9,396.498z"/>
	<polyline display="inline" points="431.355,383.344 431.355,419.218 428.996,419.218 428.996,383.344 	"/>
	<path display="inline" d="M430.176,423.15c-1.955,0-3.539-1.583-3.539-3.54c0-1.956,1.584-3.54,3.539-3.54s3.539,1.584,3.539,3.54
		C433.715,421.567,432.131,423.15,430.176,423.15"/>
</g>
<g id="Layer_3">
</g>
<g id="Layer_2">
	<g>
		<defs>
			<polygon id="SVGID_1_" points="792.072,562.859 55.609,562.859 -32,22.887 704.463,22.887 			"/>
		</defs>
		<clipPath id="SVGID_2_">
			<use xlink:href="#SVGID_1_"  overflow="visible"/>
		</clipPath>
		<g clip-path="url(#SVGID_2_)">
			<g>
				<g>
					<path fill="#29201F" d="M488.149,530.316c-0.56,7.277-27.332,14.788-61.05,14.788c-33.717,0-60.398-7.517-61.048-14.788
						c-1.575-17.625,27.96-18.569,61.675-18.569C461.443,511.747,489.409,513.953,488.149,530.316z"/>
					<path fill="#C7C7C7" d="M487.834,524.021c0,7.303-27.19,13.216-60.734,13.216c-33.543,0-60.734-5.913-60.734-13.216
						c0-7.298,27.191-13.218,60.734-13.218C460.644,510.803,487.834,516.723,487.834,524.021z"/>
				</g>
				<g>
					<path fill="#29201F" d="M488.149,530.316c-0.56,7.277-27.332,14.788-61.05,14.788c-33.717,0-60.398-7.517-61.048-14.788
						c-1.575-17.625,27.96-18.569,61.675-18.569C461.443,511.747,489.409,513.953,488.149,530.316z"/>
					<path fill="#C7C7C7" d="M487.834,524.021c0,7.303-27.19,13.216-60.734,13.216c-33.543,0-60.734-5.913-60.734-13.216
						c0-7.298,27.191-13.218,60.734-13.218C460.644,510.803,487.834,516.723,487.834,524.021z"/>
				</g>
				<g>
					<g>
						<rect x="401.051" y="165.908" width="11.327" height="361.889"/>
						<rect x="395.414" y="198.004" width="22.603" height="6.743"/>
						<rect x="395.414" y="209.492" width="22.603" height="6.745"/>
					</g>
					<g>
						<rect x="444.478" y="165.908" width="11.328" height="361.889"/>
						<rect x="438.84" y="198.004" width="22.602" height="6.743"/>
						<rect x="438.84" y="209.492" width="22.602" height="6.745"/>
					</g>
					<g>
						<rect x="385.395" y="162.447" width="2.359" height="35.874"/>
						<circle cx="386.574" cy="198.714" r="3.54"/>
					</g>
					<path d="M434.958,83.145c0,2.955-2.396,5.35-5.352,5.35l0,0c-2.953,0-5.35-2.395-5.35-5.35v-6.922
						c0-2.955,2.396-5.35,5.35-5.35l0,0c2.956,0,5.352,2.395,5.352,5.35V83.145z"/>
					<path fill="#C6C6C6" d="M372.648,80.312l-11.956,81.19c0,0,54.124,22.657,132.797,1.888l-8.811-81.819L372.648,80.312z"/>
				</g>
			</g>
			<g>
				<g>
					<path fill="#29201F" d="M116.667,530.486"/>
					<path fill="#C7C7C7" d="M116.99,524.264"/>
				</g>
			</g>
			<g>
				<g>
					<path fill="#29201F" d="M649.924,531.206c-0.439,6.842-21.415,13.898-47.83,13.898s-47.316-7.064-47.826-13.898
						c-1.235-16.564,21.906-17.452,48.32-17.452C629.005,513.754,650.909,515.826,649.924,531.206z"/>
					<ellipse fill="#C7C7C7" cx="602.096" cy="525.289" rx="47.581" ry="12.423"/>
				</g>
				<rect x="596.876" y="106.643" width="10.647" height="420.12"/>
				<path fill="#616161" d="M553.843,122.613c0,0,0.889,70.095-7.985,81.63h112.684c0,0-9.76-71.87-7.096-80.743
					C651.445,123.5,611.517,106.643,553.843,122.613z"/>
				<ellipse cx="602.2" cy="248.163" rx="15.972" ry="19.964"/>
				<ellipse cx="602.201" cy="226.425" rx="8.429" ry="5.385"/>
			</g>
		</g>
	</g>
	<path fill="#29201F" d="M186.058,532.579c-1.62-17.423,28.775-18.355,63.474-18.355c34.696,0,63.472,2.18,62.18,18.355
		c-0.577,7.194-28.131,14.618-62.829,14.618S186.727,539.766,186.058,532.579"/>
	<path fill="#C7C7C7" d="M186.38,526.356c0-7.216,27.984-13.066,62.501-13.066c34.519,0,62.505,5.851,62.505,13.066
		c0,7.217-27.986,13.063-62.505,13.063C214.364,539.42,186.38,533.573,186.38,526.356"/>
	<rect x="241.586" y="390.727" fill="#29201F" width="11.199" height="137.187"/>
	<path d="M276.115,420.591h-61.594c-55.06-130.651,0-298.633,0-298.633h61.594C276.115,121.958,339.574,298.337,276.115,420.591z"/>
	<polyline points="264.57,407.437 264.57,443.311 262.211,443.311 262.211,407.437 	"/>
	<path d="M263.39,447.243c-1.954,0-3.539-1.583-3.539-3.54c0-1.956,1.585-3.54,3.539-3.54c1.955,0,3.54,1.584,3.54,3.54
		C266.93,445.66,265.345,447.243,263.39,447.243"/>
</g>
</svg>
