<?xml version="1.0" encoding="utf-8"?>
<!-- Generator: Adobe Illustrator 16.0.0, SVG Export Plug-In . SVG Version: 6.00 Build 0)  -->
<!DOCTYPE svg PUBLIC "-//W3C//DTD SVG 1.1//EN" "http://www.w3.org/Graphics/SVG/1.1/DTD/svg11.dtd">
<svg version="1.1" xmlns="http://www.w3.org/2000/svg" xmlns:xlink="http://www.w3.org/1999/xlink" x="0px" y="0px"
	 width="566.929px" height="595.28px" viewBox="0 0 566.929 595.28" enable-background="new 0 0 566.929 595.28"
	 xml:space="preserve">
<g id="Layer_1">
	<path fill="#29201F" d="M341.016,508.486c-0.576,7.194-28.131,14.618-62.829,14.618c-34.698,0-62.155-7.432-62.824-14.618
		c-1.62-17.423,28.775-18.355,63.474-18.355C313.533,490.131,342.309,492.311,341.016,508.486"/>
	<path fill="#C7C7C7" d="M340.691,502.264c0,7.217-27.986,13.063-62.504,13.063c-34.518,0-62.501-5.847-62.501-13.063
		c0-7.216,27.984-13.066,62.501-13.066C312.705,489.197,340.691,495.048,340.691,502.264"/>
	<rect x="270.891" y="366.634" fill="#29201F" width="11.199" height="137.187"/>
	<path d="M305.42,396.498h-61.593c-55.06-130.651,0-298.633,0-298.633h61.593C305.42,97.865,368.879,274.244,305.42,396.498z"/>
	<polyline points="293.875,383.344 293.875,419.218 291.516,419.218 291.516,383.344 	"/>
	<path d="M292.695,423.15c-1.955,0-3.539-1.583-3.539-3.54c0-1.956,1.584-3.54,3.539-3.54s3.539,1.584,3.539,3.54
		C296.234,421.567,294.65,423.15,292.695,423.15"/>
</g>
<g id="Layer_3">
</g>
<g id="Layer_2" display="none">
	<g display="inline">
		<defs>
			<polygon id="SVGID_1_" points="654.592,562.859 -81.871,562.859 -169.48,22.887 566.982,22.887 			"/>
		</defs>
		<clipPath id="SVGID_2_">
			<use xlink:href="#SVGID_1_"  overflow="visible"/>
		</clipPath>
		<g clip-path="url(#SVGID_2_)">
			<g>
				<g>
					<path fill="#29201F" d="M350.669,530.316c-0.56,7.277-27.332,14.788-61.05,14.788c-33.717,0-60.398-7.517-61.048-14.788
						c-1.575-17.625,27.96-18.569,61.675-18.569C323.963,511.747,351.929,513.953,350.669,530.316z"/>
					<path fill="#C7C7C7" d="M350.354,524.021c0,7.303-27.19,13.216-60.734,13.216c-33.543,0-60.734-5.913-60.734-13.216
						c0-7.298,27.191-13.218,60.734-13.218C323.163,510.803,350.354,516.723,350.354,524.021z"/>
				</g>
				<g>
					<path fill="#29201F" d="M350.669,530.316c-0.56,7.277-27.332,14.788-61.05,14.788c-33.717,0-60.398-7.517-61.048-14.788
						c-1.575-17.625,27.96-18.569,61.675-18.569C323.963,511.747,351.929,513.953,350.669,530.316z"/>
					<path fill="#C7C7C7" d="M350.354,524.021c0,7.303-27.19,13.216-60.734,13.216c-33.543,0-60.734-5.913-60.734-13.216
						c0-7.298,27.191-13.218,60.734-13.218C323.163,510.803,350.354,516.723,350.354,524.021z"/>
				</g>
				<g>
					<g>
						<rect x="263.57" y="165.908" width="11.327" height="361.889"/>
						<rect x="257.934" y="198.004" width="22.603" height="6.743"/>
						<rect x="257.934" y="209.492" width="22.603" height="6.745"/>
					</g>
					<g>
						<rect x="306.997" y="165.908" width="11.328" height="361.889"/>
						<rect x="301.359" y="198.004" width="22.602" height="6.743"/>
						<rect x="301.359" y="209.492" width="22.602" height="6.745"/>
					</g>
					<g>
						<rect x="247.914" y="162.447" width="2.359" height="35.874"/>
						<circle cx="249.093" cy="198.714" r="3.54"/>
					</g>
					<path d="M297.478,83.145c0,2.955-2.396,5.35-5.352,5.35l0,0c-2.953,0-5.35-2.395-5.35-5.35v-6.922
						c0-2.955,2.396-5.35,5.35-5.35l0,0c2.956,0,5.352,2.395,5.352,5.35V83.145z"/>
					<path fill="#C6C6C6" d="M235.168,80.312l-11.956,81.19c0,0,54.124,22.657,132.797,1.888l-8.811-81.819L235.168,80.312z"/>
				</g>
			</g>
			<g>
				<g>
					<path fill="#29201F" d="M-20.813,530.486"/>
					<path fill="#C7C7C7" d="M-20.491,524.264"/>
				</g>
			</g>
			<g>
				<g>
					<path fill="#29201F" d="M512.443,531.206c-0.439,6.842-21.415,13.898-47.83,13.898s-47.316-7.064-47.826-13.898
						c-1.235-16.564,21.906-17.452,48.32-17.452C491.524,513.754,513.429,515.826,512.443,531.206z"/>
					<ellipse fill="#C7C7C7" cx="464.615" cy="525.289" rx="47.581" ry="12.423"/>
				</g>
				<rect x="459.396" y="106.643" width="10.647" height="420.12"/>
				<path fill="#616161" d="M416.362,122.613c0,0,0.889,70.095-7.985,81.63h112.684c0,0-9.76-71.87-7.096-80.743
					C513.965,123.5,474.036,106.643,416.362,122.613z"/>
				<ellipse cx="464.72" cy="248.163" rx="15.972" ry="19.964"/>
				<ellipse cx="464.72" cy="226.425" rx="8.429" ry="5.385"/>
			</g>
		</g>
	</g>
	<path display="inline" fill="#29201F" d="M48.577,532.579c-1.62-17.423,28.775-18.355,63.474-18.355
		c34.696,0,63.472,2.18,62.18,18.355c-0.577,7.194-28.131,14.618-62.829,14.618S49.247,539.766,48.577,532.579"/>
	<path display="inline" fill="#C7C7C7" d="M48.9,526.356c0-7.216,27.984-13.066,62.501-13.066c34.519,0,62.505,5.851,62.505,13.066
		c0,7.217-27.986,13.063-62.505,13.063C76.884,539.42,48.9,533.573,48.9,526.356"/>
	<rect x="104.105" y="390.727" display="inline" fill="#29201F" width="11.199" height="137.187"/>
	<path display="inline" d="M138.635,420.591H77.041c-55.06-130.651,0-298.633,0-298.633h61.594
		C138.635,121.958,202.094,298.337,138.635,420.591z"/>
	<polyline display="inline" points="127.09,407.437 127.09,443.311 124.73,443.311 124.73,407.437 	"/>
	<path display="inline" d="M125.909,447.243c-1.954,0-3.539-1.583-3.539-3.54c0-1.956,1.585-3.54,3.539-3.54
		c1.955,0,3.54,1.584,3.54,3.54C129.449,445.66,127.864,447.243,125.909,447.243"/>
</g>
</svg>
