<?xml version="1.0" encoding="utf-8"?>
<!-- Generator: Adobe Illustrator 16.0.0, SVG Export Plug-In . SVG Version: 6.00 Build 0)  -->
<!DOCTYPE svg PUBLIC "-//W3C//DTD SVG 1.1//EN" "http://www.w3.org/Graphics/SVG/1.1/DTD/svg11.dtd">
<svg version="1.1" xmlns="http://www.w3.org/2000/svg" xmlns:xlink="http://www.w3.org/1999/xlink" x="0px" y="0px" width="800px"
	 height="800px" viewBox="0 0 800 800" enable-background="new 0 0 800 800" xml:space="preserve">
<g id="Background" display="none">
</g>
<g id="Objects">
	<g>
		<g>
			<ellipse fill="#1E1E1E" cx="385.321" cy="370.272" rx="245.174" ry="223.783"/>
		</g>
		<g>
			<g>
				
					<ellipse fill="none" stroke="#1E1E1E" stroke-width="32" stroke-linecap="round" stroke-miterlimit="10" stroke-dasharray="0,26.8018" cx="385.321" cy="365.219" rx="245.174" ry="223.783"/>
			</g>
		</g>
		<ellipse fill="#646464" cx="385.762" cy="390.613" rx="165.982" ry="165.631"/>
		<g>
			<circle fill="#1E1E1E" cx="318.407" cy="357.42" r="11.221"/>
			<circle fill="#1E1E1E" cx="453.136" cy="357.42" r="12.608"/>
			<g>
				<path fill="#646464" d="M354.473,413.208c0,0,29.828,22.892,63.125,0"/>
				<path fill="#191919" d="M354.473,413.208c0,0,0.911,0.544,2.559,1.358c1.642,0.826,4.024,1.914,6.938,3.021
					c1.461,0.544,3.055,1.09,4.755,1.602c1.696,0.529,3.52,0.949,5.396,1.382c1.887,0.397,3.852,0.707,5.854,0.94
					c0.998,0.146,2.015,0.181,3.029,0.278c1.018,0.03,2.04,0.095,3.061,0.081c1.021-0.012,2.044,0.026,3.06-0.053l1.521-0.08
					c0.505-0.039,1.006-0.104,1.507-0.153c1.003-0.092,1.99-0.236,2.967-0.384c0.982-0.119,1.936-0.328,2.878-0.522
					c0.95-0.165,1.856-0.438,2.759-0.654c0.907-0.204,1.778-0.463,2.621-0.736c1.703-0.496,3.266-1.118,4.735-1.639
					c0.719-0.303,1.407-0.594,2.062-0.87c0.667-0.256,1.283-0.534,1.854-0.817c1.139-0.564,2.184-0.98,2.981-1.435
					c1.63-0.851,2.587-1.319,2.587-1.319s-0.81,0.675-2.271,1.826c-0.718,0.596-1.667,1.203-2.742,1.933
					c-1.058,0.76-2.357,1.44-3.747,2.246c-1.434,0.713-2.976,1.541-4.708,2.185c-0.854,0.357-1.738,0.703-2.666,0.996
					c-0.918,0.32-1.867,0.62-2.852,0.854c-0.979,0.255-1.975,0.523-3.002,0.703c-0.512,0.102-1.027,0.203-1.545,0.305
					c-0.521,0.085-1.049,0.137-1.577,0.206c-0.529,0.062-1.059,0.139-1.593,0.189l-1.609,0.111
					c-1.075,0.099-2.159,0.084-3.242,0.106c-1.083-0.005-2.163-0.088-3.239-0.14c-1.07-0.119-2.144-0.177-3.194-0.348
					c-0.526-0.077-1.05-0.154-1.571-0.23c-0.519-0.093-1.03-0.209-1.541-0.312c-1.023-0.192-2.015-0.467-2.995-0.708
					c-1.95-0.522-3.8-1.146-5.511-1.834c-1.724-0.655-3.295-1.412-4.721-2.144c-2.853-1.468-5.068-2.963-6.552-4.083
					C355.232,413.952,354.473,413.208,354.473,413.208z"/>
			</g>
			<ellipse fill="#7A7A7A" cx="478.388" cy="390.322" rx="18.036" ry="12.486"/>
			<ellipse fill="#7A7A7A" cx="293.136" cy="390.322" rx="18.035" ry="12.486"/>
			<path fill="#7A7A7A" d="M301.753,444.818c0,0,82.548,45.088,172.725,0C474.479,444.818,394.706,591.183,301.753,444.818z"/>
		</g>
		<path fill="#979797" d="M384.49,221.922c0,0-164.149-7.445-164.149,168.315c0,0,49.629-133.652,164.149-133.652
			c114.519,0,167.254,134.028,167.254,134.028C551.744,214.853,384.49,221.922,384.49,221.922z"/>
		<path fill="#979797" d="M459.513,269.606c-1.363,0.304-72.135-13.314,5.877-113.395c0,0,0.089,82.137,6.956,90.554
			C472.346,246.765,478.695,265.334,459.513,269.606z"/>
		<path fill="#979797" d="M455.317,266.245c0.047,1.396,30.961,66.5,108.307-34.099c0,0-79.54,20.492-89.409,15.954
			C474.215,248.099,454.647,246.603,455.317,266.245z"/>
		
			<ellipse transform="matrix(0.8257 0.5642 -0.5642 0.8257 228.4756 -217.6445)" fill="#ACACAC" cx="466.385" cy="260.849" rx="29.628" ry="24.549"/>
	</g>
</g>
</svg>
