<?xml version="1.0" encoding="utf-8"?>
<!-- Generator: Adobe Illustrator 16.0.0, SVG Export Plug-In . SVG Version: 6.00 Build 0)  -->
<!DOCTYPE svg PUBLIC "-//W3C//DTD SVG 1.1//EN" "http://www.w3.org/Graphics/SVG/1.1/DTD/svg11.dtd">
<svg version="1.1" xmlns="http://www.w3.org/2000/svg" xmlns:xlink="http://www.w3.org/1999/xlink" x="0px" y="0px" width="800px"
	 height="800px" viewBox="0 0 800 800" enable-background="new 0 0 800 800" xml:space="preserve">
<g id="Background" display="none">
</g>
<g id="Objects">
	<g>
		<g>
			<ellipse fill="#1E1E1E" cx="184.321" cy="167.601" rx="90.174" ry="82.307"/>
		</g>
		<g>
			<g>
				
					<ellipse fill="none" stroke="#1E1E1E" stroke-width="32" stroke-linecap="round" stroke-miterlimit="10" stroke-dasharray="0,27.1085" cx="184.321" cy="165.743" rx="90.174" ry="82.307"/>
			</g>
		</g>
		<ellipse fill="#646464" cx="184.484" cy="175.083" rx="61.048" ry="60.919"/>
		<g>
			<circle fill="#1E1E1E" cx="159.711" cy="162.875" r="4.127"/>
			<circle fill="#1E1E1E" cx="209.263" cy="162.875" r="4.637"/>
			<g>
				<path fill="#646464" d="M172.976,183.393c0,0,10.971,8.419,23.217,0"/>
				<path fill="#191919" d="M172.976,183.393c0,0,0.379,0.123,1.042,0.338c0.656,0.205,1.577,0.493,2.678,0.763
					c0.543,0.152,1.137,0.283,1.758,0.417c0.616,0.15,1.28,0.234,1.945,0.369c0.681,0.061,1.365,0.216,2.073,0.238
					c0.352,0.029,0.707,0.047,1.061,0.088l1.069,0.005c0.715,0.055,1.421-0.048,2.125-0.067c0.707-0.011,1.382-0.182,2.06-0.236
					c0.677-0.068,1.304-0.271,1.931-0.372c0.634-0.087,1.194-0.306,1.742-0.443c0.536-0.165,1.078-0.233,1.504-0.415
					c0.435-0.163,0.834-0.281,1.163-0.386c0.66-0.206,1.066-0.3,1.066-0.3s-0.254,0.308-0.751,0.807
					c-0.25,0.248-0.552,0.557-0.923,0.884c-0.352,0.361-0.829,0.638-1.332,0.989c-0.515,0.325-1.059,0.73-1.714,0.992
					c-0.648,0.27-1.319,0.636-2.07,0.832c-0.376,0.1-0.759,0.203-1.146,0.306c-0.388,0.11-0.785,0.201-1.195,0.232
					c-0.814,0.101-1.646,0.216-2.482,0.176l-1.249-0.039c-0.412-0.046-0.82-0.114-1.225-0.171c-0.815-0.086-1.583-0.35-2.329-0.542
					c-0.729-0.259-1.433-0.505-2.062-0.823c-0.634-0.305-1.215-0.622-1.725-0.961c-0.522-0.312-0.953-0.681-1.343-0.977
					c-0.381-0.316-0.697-0.605-0.943-0.863C173.203,183.735,172.976,183.393,172.976,183.393z"/>
			</g>
			<ellipse fill="#7A7A7A" cx="218.551" cy="174.976" rx="6.634" ry="4.592"/>
			<ellipse fill="#7A7A7A" cx="150.416" cy="174.976" rx="6.633" ry="4.592"/>
			<path fill="#7A7A7A" d="M153.585,195.019c0,0,30.361,16.583,63.528,0C217.113,195.019,187.773,248.852,153.585,195.019z"/>
		</g>
		<path fill="#979797" d="M184.016,113.039c0,0-60.374-2.738-60.374,61.906c0,0,18.253-49.157,60.374-49.157
			c42.12,0,61.516,49.295,61.516,49.295C245.531,110.438,184.016,113.039,184.016,113.039z"/>
		<path fill="#979797" d="M211.609,130.577c-0.501,0.112-26.531-4.897,2.162-41.707c0,0,0.033,30.21,2.558,33.306
			C216.329,122.176,218.664,129.005,211.609,130.577z"/>
		<path fill="#979797" d="M210.066,129.34c0.017,0.513,11.387,24.458,39.835-12.542c0,0-29.255,7.537-32.885,5.868
			C217.016,122.667,209.819,122.116,210.066,129.34z"/>
		
			<ellipse transform="matrix(0.8257 0.5642 -0.5642 0.8257 109.1852 -98.6069)" fill="#ACACAC" cx="214.136" cy="127.356" rx="10.897" ry="9.029"/>
	</g>
	<g>
		<g>
			<ellipse fill="#A3A3A3" cx="184.321" cy="427.333" rx="71.137" ry="70.987"/>
			<path fill="#1E1E1E" d="M255.436,423.437c0,0-35.49-0.381-71.02-0.359c-35.607,0.021-71.254,0.359-71.254,0.359
				s0-68.984,71.137-68.984C259.78,354.453,255.436,423.437,255.436,423.437z"/>
			<circle fill="#1E1E1E" cx="184.468" cy="365.858" r="56.99"/>
			<circle fill="#1E1E1E" cx="184.468" cy="334.333" r="39.021"/>
			<g>
				<g>
					<g>
						<path fill="#1E1E1E" d="M221.424,456.606c0,0-0.305-0.098-0.84-0.268c-0.516-0.166-1.234-0.388-2.036-0.629
							c-0.405-0.115-0.825-0.246-1.27-0.347c-0.431-0.139-0.898-0.194-1.347-0.316c-0.463-0.052-0.918-0.176-1.38-0.2
							c-0.23-0.022-0.461-0.031-0.689-0.071c-0.229-0.014-0.458,0.003-0.686-0.002c-0.459-0.063-0.907,0.055-1.365,0.049
							c-0.455,0.032-0.897,0.156-1.356,0.191c-0.445,0.099-0.882,0.232-1.326,0.316c-0.444,0.087-0.839,0.277-1.247,0.381
							c-0.404,0.115-0.798,0.211-1.123,0.354c-0.333,0.127-0.649,0.22-0.909,0.305c-0.523,0.165-0.867,0.236-0.867,0.236
							s0.092-0.314,0.332-0.825c0.122-0.253,0.269-0.57,0.467-0.914c0.182-0.361,0.461-0.699,0.786-1.065
							c0.335-0.354,0.671-0.786,1.133-1.123c0.468-0.329,0.964-0.7,1.533-0.996c0.293-0.135,0.602-0.252,0.916-0.373
							c0.315-0.116,0.627-0.266,0.974-0.307c0.681-0.125,1.382-0.272,2.091-0.229c0.353,0.018,0.709,0.021,1.056,0.059
							c0.345,0.055,0.684,0.14,1.019,0.21c0.341,0.058,0.657,0.178,0.964,0.304c0.307,0.123,0.617,0.229,0.898,0.381
							c0.554,0.311,1.085,0.608,1.52,0.979c0.454,0.343,0.83,0.725,1.158,1.085c0.648,0.733,1.06,1.438,1.29,1.964
							C221.362,456.272,221.424,456.606,221.424,456.606z"/>
					</g>
					<g>
						<path fill="#1E1E1E" d="M163.659,456.606c0,0-0.305-0.098-0.84-0.268c-0.516-0.166-1.234-0.388-2.036-0.629
							c-0.405-0.115-0.825-0.246-1.27-0.347c-0.431-0.139-0.898-0.195-1.347-0.316c-0.463-0.052-0.918-0.176-1.38-0.2
							c-0.23-0.022-0.461-0.031-0.689-0.071c-0.229-0.014-0.458,0.003-0.686-0.002c-0.459-0.063-0.907,0.055-1.365,0.049
							c-0.455,0.032-0.898,0.156-1.357,0.191c-0.445,0.099-0.882,0.232-1.325,0.316c-0.444,0.087-0.839,0.277-1.248,0.381
							c-0.404,0.115-0.798,0.212-1.123,0.354c-0.333,0.127-0.649,0.22-0.909,0.305c-0.523,0.165-0.867,0.236-0.867,0.236
							s0.092-0.314,0.332-0.825c0.122-0.253,0.269-0.57,0.467-0.914c0.181-0.361,0.461-0.699,0.785-1.065
							c0.335-0.354,0.671-0.786,1.134-1.123c0.467-0.328,0.964-0.7,1.533-0.996c0.293-0.135,0.602-0.252,0.916-0.373
							c0.315-0.116,0.627-0.266,0.974-0.307c0.681-0.125,1.382-0.272,2.091-0.229c0.353,0.018,0.709,0.021,1.056,0.059
							c0.345,0.055,0.684,0.139,1.019,0.21c0.341,0.058,0.657,0.178,0.964,0.304c0.308,0.123,0.618,0.229,0.898,0.381
							c0.554,0.311,1.085,0.608,1.52,0.979c0.454,0.343,0.83,0.725,1.158,1.085c0.648,0.733,1.06,1.438,1.29,1.964
							C163.596,456.272,163.659,456.606,163.659,456.606z"/>
					</g>
					<g>
						<path fill="#444444" d="M175.746,462.698c0,0,0.236,0.156,0.648,0.396c0.404,0.25,0.995,0.575,1.685,0.938
							c0.355,0.168,0.727,0.355,1.131,0.521c0.392,0.191,0.836,0.301,1.263,0.472c0.442,0.12,0.899,0.25,1.362,0.315
							c0.232,0.033,0.466,0.061,0.698,0.104c0.234,0.023,0.47,0.008,0.704,0.017c0.472,0.059,0.933-0.067,1.397-0.091
							c0.459-0.069,0.905-0.21,1.352-0.303c0.423-0.167,0.84-0.334,1.25-0.479c0.398-0.167,0.75-0.394,1.106-0.557
							c0.349-0.176,0.682-0.331,0.944-0.52c0.27-0.179,0.521-0.32,0.728-0.443c0.417-0.24,0.674-0.37,0.674-0.37
							s-0.131,0.242-0.395,0.654c-0.134,0.203-0.295,0.456-0.5,0.732c-0.187,0.294-0.449,0.578-0.764,0.866
							c-0.312,0.288-0.624,0.647-1.037,0.924c-0.419,0.267-0.857,0.578-1.351,0.826c-0.523,0.182-1.048,0.458-1.632,0.571
							c-0.586,0.094-1.186,0.236-1.795,0.187c-0.303-0.015-0.609-0.01-0.907-0.047c-0.294-0.06-0.587-0.119-0.877-0.178
							c-0.295-0.044-0.565-0.156-0.832-0.261c-0.265-0.108-0.537-0.191-0.781-0.319c-0.991-0.486-1.804-1.099-2.411-1.696
							c-0.611-0.597-1.034-1.163-1.292-1.582C175.852,462.96,175.746,462.698,175.746,462.698z"/>
					</g>
				</g>
				<circle fill="#6E6E6E" cx="182.79" cy="433.37" r="3.878"/>
			</g>
			<g>
				<g>
					<path fill="#D3D3D3" d="M124.438,384.701L124.438,384.701z"/>
					<circle fill="#D3D3D3" cx="131.575" cy="376.348" r="1.156"/>
					<circle fill="#D3D3D3" cx="139.797" cy="369.054" r="1.992"/>
					<circle fill="#D3D3D3" cx="148.941" cy="362.956" r="2.612"/>
					<circle fill="#D3D3D3" cx="158.904" cy="358.325" r="3.051"/>
					<circle fill="#D3D3D3" cx="169.509" cy="355.448" r="3.34"/>
					<circle fill="#D3D3D3" cx="180.456" cy="354.519" r="3.473"/>
					<circle fill="#D3D3D3" cx="191.453" cy="354.82" r="3.477"/>
					<circle fill="#D3D3D3" cx="202.403" cy="355.835" r="3.354"/>
					<circle fill="#D3D3D3" cx="213.142" cy="358.167" r="3.072"/>
					<circle fill="#D3D3D3" cx="223.206" cy="362.543" r="2.641"/>
					<circle fill="#D3D3D3" cx="232.03" cy="369.075" r="2.026"/>
					<circle fill="#D3D3D3" cx="239.622" cy="377.027" r="1.194"/>
					<circle fill="#D3D3D3" cx="246.053" cy="385.194" r="0.048"/>
				</g>
			</g>
			<g>
				<g>
					<path fill="#D3D3D3" d="M130.487,347.537L130.487,347.537z"/>
					<circle fill="#D3D3D3" cx="136.131" cy="338.118" r="1.227"/>
					<circle fill="#D3D3D3" cx="143.438" cy="329.916" r="2.102"/>
					<circle fill="#D3D3D3" cx="152.195" cy="323.291" r="2.729"/>
					<circle fill="#D3D3D3" cx="162.162" cy="318.686" r="3.159"/>
					<circle fill="#D3D3D3" cx="172.893" cy="316.37" r="3.402"/>
					<circle fill="#D3D3D3" cx="183.882" cy="316.126" r="3.497"/>
					<circle fill="#D3D3D3" cx="194.864" cy="316.729" r="3.421"/>
					<circle fill="#D3D3D3" cx="205.693" cy="318.594" r="3.188"/>
					<circle fill="#D3D3D3" cx="215.7" cy="323.047" r="2.759"/>
					<circle fill="#D3D3D3" cx="223.913" cy="330.321" r="2.126"/>
					<circle fill="#D3D3D3" cx="230.851" cy="338.852" r="1.236"/>
				</g>
			</g>
		</g>
		<path fill="#6E6E6E" d="M172.102,480.35c0,0.05-0.003,0.099-0.003,0.147c0,6.751,5.472,12.224,12.223,12.224
			c6.751,0,12.224-5.473,12.224-12.224c0-0.049-0.003-0.098-0.004-0.147H172.102z"/>
	</g>
	<g>
		
			<ellipse transform="matrix(1 -0.0042 0.0042 1 -0.7072 1.8186)" fill="#EFEFEF" cx="431.391" cy="168.809" rx="70.015" ry="69.868"/>
		<path fill="#1E1E1E" d="M501.364,164.127c0,0-34.932-0.227-69.901-0.06c-35.045,0.168-70.128,0.649-70.128,0.649
			s-0.286-67.896,69.729-68.19C505.354,96.214,501.364,164.127,501.364,164.127z"/>
		<path fill="#1E1E1E" d="M475.406,120.558c0,0,6.536-22.429,32.11-22.537c25.574-0.107,33.387,33.106,33.387,33.106l-18.983,13.388
			C521.92,144.516,508.972,106.208,475.406,120.558z"/>
		<path fill="#1E1E1E" d="M388.437,120.924c0,0-6.725-22.373-32.299-22.266c-25.574,0.108-33.106,33.387-33.106,33.387
			l19.095,13.228C342.126,145.272,354.752,106.858,388.437,120.924z"/>
		<g>
			<circle fill="#909090" cx="382.309" cy="114.733" r="3.802"/>
			<path fill="#909090" d="M384.636,100.96c2.365-0.426,3.495,1.577,3.991,2.983c1.467-0.269,3.766-0.285,4.573,1.979
				c1.22,3.421-9.07,8.331-9.07,8.331l-0.837-1.104l-1.374-0.178C381.919,112.972,381.062,101.604,384.636,100.96z"/>
			<path fill="#909090" d="M369.617,119.28c0.065,2.398,2.252,3.095,3.729,3.294c0.036,1.489,0.488,3.739,2.865,4.067
				c3.592,0.496,6.297-10.562,6.297-10.562l-1.249-0.594l-0.453-1.307C380.806,114.18,369.518,115.655,369.617,119.28z"/>
		</g>
		<g>
			<circle fill="#909090" cx="481.312" cy="115.027" r="3.802"/>
			<path fill="#909090" d="M478.869,101.274c-2.368-0.406-3.48,1.606-3.965,3.017c-1.47-0.256-3.769-0.253-4.557,2.017
				c-1.191,3.431,9.14,8.254,9.14,8.254l0.828-1.11l1.372-0.189C481.688,113.263,482.449,101.887,478.869,101.274z"/>
			<path fill="#909090" d="M494.043,119.467c-0.046,2.399-2.227,3.114-3.701,3.325c-0.023,1.489-0.456,3.743-2.83,4.091
				c-3.589,0.526-6.387-10.508-6.387-10.508l1.244-0.604l0.442-1.31C482.812,114.461,494.111,115.841,494.043,119.467z"/>
		</g>
		<g>
			<path fill="#7A7A7A" d="M444.759,216.24c0.016,3.636-8.254,9.975-13.854,9.998c-5.601,0.024-13.997-6-14.013-9.636
				c-0.016-3.636,8.357-3.507,13.957-3.531C436.449,213.048,444.743,212.604,444.759,216.24z"/>
			<g>
				<path fill="#1E1E1E" d="M477.486,192.539c0,0-0.303-0.093-0.832-0.255c-0.511-0.159-1.221-0.37-2.012-0.6
					c-0.399-0.11-0.813-0.235-1.252-0.331c-0.425-0.132-0.884-0.184-1.325-0.3c-0.455-0.048-0.902-0.167-1.355-0.188
					c-0.226-0.021-0.452-0.027-0.676-0.066c-0.225-0.012-0.449,0.005-0.673,0.001c-0.45-0.06-0.889,0.057-1.337,0.052
					c-0.446,0.033-0.88,0.155-1.331,0.19c-0.437,0.097-0.865,0.229-1.301,0.312c-0.437,0.085-0.826,0.272-1.228,0.374
					c-0.398,0.113-0.786,0.208-1.105,0.348c-0.328,0.125-0.641,0.216-0.897,0.299c-0.517,0.162-0.856,0.232-0.856,0.232
					s0.087-0.312,0.318-0.818c0.118-0.251,0.26-0.566,0.453-0.906c0.176-0.358,0.448-0.694,0.766-1.058
					c0.327-0.351,0.655-0.78,1.11-1.116c0.459-0.327,0.946-0.696,1.506-0.991c0.289-0.135,0.593-0.252,0.901-0.374
					c0.311-0.116,0.618-0.265,0.96-0.307c0.671-0.127,1.362-0.275,2.062-0.235c0.349,0.016,0.699,0.017,1.043,0.053
					c0.34,0.052,0.675,0.135,1.006,0.204c0.337,0.055,0.648,0.173,0.952,0.296c0.304,0.121,0.61,0.225,0.887,0.373
					c0.547,0.305,1.072,0.597,1.502,0.962c0.448,0.337,0.818,0.713,1.143,1.068c0.64,0.724,1.045,1.418,1.271,1.938
					C477.425,192.208,477.486,192.539,477.486,192.539z"/>
			</g>
			<g>
				<path fill="#1E1E1E" d="M402.805,192.853c0,0-0.303-0.093-0.832-0.255c-0.511-0.159-1.221-0.37-2.012-0.6
					c-0.4-0.109-0.814-0.235-1.252-0.331c-0.425-0.132-0.885-0.184-1.326-0.3c-0.455-0.048-0.902-0.167-1.355-0.188
					c-0.226-0.021-0.453-0.027-0.676-0.066c-0.224-0.012-0.449,0.005-0.672,0.001c-0.451-0.06-0.889,0.057-1.337,0.052
					c-0.446,0.033-0.88,0.155-1.331,0.19c-0.437,0.097-0.866,0.229-1.302,0.311c-0.437,0.086-0.825,0.272-1.227,0.375
					c-0.398,0.113-0.787,0.208-1.106,0.348c-0.328,0.125-0.64,0.216-0.896,0.299c-0.517,0.162-0.857,0.232-0.857,0.232
					s0.087-0.312,0.319-0.818c0.118-0.251,0.259-0.566,0.452-0.906c0.176-0.358,0.449-0.694,0.766-1.059
					c0.328-0.35,0.656-0.78,1.11-1.116c0.459-0.327,0.946-0.697,1.506-0.991c0.289-0.135,0.593-0.252,0.901-0.374
					c0.311-0.116,0.618-0.265,0.96-0.307c0.671-0.127,1.363-0.275,2.062-0.235c0.349,0.016,0.7,0.017,1.042,0.053
					c0.341,0.052,0.675,0.135,1.007,0.204c0.336,0.055,0.648,0.173,0.952,0.296c0.303,0.121,0.609,0.225,0.887,0.373
					c0.547,0.305,1.072,0.598,1.501,0.962c0.449,0.337,0.819,0.713,1.144,1.068c0.64,0.724,1.045,1.418,1.271,1.938
					C402.743,192.522,402.805,192.853,402.805,192.853z"/>
			</g>
			
				<line fill="none" stroke="#7A7A7A" stroke-width="2" stroke-linecap="round" stroke-miterlimit="10" x1="385.549" y1="205.401" x2="392.75" y2="199.801"/>
			
				<line fill="none" stroke="#7A7A7A" stroke-width="2" stroke-linecap="round" stroke-miterlimit="10" x1="391.232" y1="205.377" x2="398.433" y2="199.777"/>
			
				<line fill="none" stroke="#7A7A7A" stroke-width="2" stroke-linecap="round" stroke-miterlimit="10" x1="395.939" y1="205.734" x2="404.114" y2="199.376"/>
			
				<line fill="none" stroke="#7A7A7A" stroke-width="2" stroke-linecap="round" stroke-miterlimit="10" x1="455.878" y1="205.105" x2="463.078" y2="199.505"/>
			
				<line fill="none" stroke="#7A7A7A" stroke-width="2" stroke-linecap="round" stroke-miterlimit="10" x1="461.561" y1="205.081" x2="468.762" y2="199.481"/>
			
				<line fill="none" stroke="#7A7A7A" stroke-width="2" stroke-linecap="round" stroke-miterlimit="10" x1="467.244" y1="205.057" x2="474.444" y2="199.457"/>
			<g>
				<path fill="#7A7A7A" d="M423.64,198.762c0,0,0.234,0.152,0.642,0.385c0.4,0.244,0.984,0.559,1.666,0.911
					c0.35,0.163,0.718,0.345,1.115,0.504c0.387,0.186,0.823,0.291,1.245,0.457c0.435,0.116,0.884,0.241,1.339,0.303
					c0.229,0.031,0.458,0.057,0.687,0.098c0.229,0.022,0.461,0.006,0.691,0.014c0.464,0.056,0.916-0.07,1.372-0.095
					c0.45-0.07,0.889-0.209,1.326-0.301c0.416-0.165,0.826-0.33,1.228-0.473c0.392-0.165,0.737-0.389,1.087-0.55
					c0.343-0.173,0.67-0.327,0.929-0.513c0.265-0.176,0.514-0.316,0.717-0.437c0.41-0.237,0.664-0.365,0.664-0.365
					s-0.127,0.24-0.384,0.647c-0.131,0.202-0.287,0.452-0.487,0.726c-0.182,0.291-0.438,0.573-0.746,0.858
					c-0.306,0.287-0.611,0.643-1.017,0.917c-0.411,0.265-0.841,0.574-1.327,0.821c-0.515,0.183-1.03,0.457-1.605,0.571
					c-0.577,0.095-1.168,0.238-1.769,0.192c-0.299-0.014-0.601-0.008-0.895-0.043c-0.29-0.057-0.579-0.114-0.866-0.171
					c-0.291-0.043-0.557-0.153-0.821-0.254c-0.261-0.106-0.529-0.188-0.771-0.312c-0.978-0.476-1.78-1.077-2.38-1.666
					c-0.603-0.586-1.02-1.144-1.275-1.556C423.744,199.02,423.64,198.762,423.64,198.762z"/>
			</g>
		</g>
	</g>
	<g>
		<g>
			<g>
				<g>
					<g>
						<path fill="#1E1E1E" d="M438.321,485.187c-9.322,0-17.769-5.215-26.228-7.612c-8.892-2.52-18.811-2.649-26.288-7.398
							c-7.75-4.923-12.007-13.896-17.722-20.743c-5.822-6.976-13.861-12.845-17.021-21.315c-3.105-8.327-0.916-17.952-0.916-27.237
							s-2.189-18.911,0.916-27.237c3.159-8.471,11.198-14.34,17.021-21.316c5.715-6.846,9.971-15.821,17.721-20.744
							c7.477-4.749,17.397-4.878,26.288-7.398c8.459-2.397,16.906-7.613,26.229-7.613s17.77,5.215,26.228,7.613
							c8.892,2.52,18.812,2.649,26.289,7.398c7.75,4.923,12.007,13.897,17.722,20.744c5.822,6.976,13.861,12.845,17.021,21.316
							c3.105,8.327,0.916,17.952,0.916,27.237s2.189,18.911-0.916,27.237c-3.159,8.471-11.198,14.34-17.021,21.315
							c-5.715,6.847-9.971,15.821-17.722,20.743c-7.477,4.749-17.396,4.879-26.287,7.398
							C456.091,479.972,447.644,485.187,438.321,485.187z"/>
					</g>
				</g>
			</g>
			<ellipse fill="#646464" cx="438.483" cy="422.36" rx="61.048" ry="60.919"/>
			<path fill="#1E1E1E" d="M499.531,394H377.436c0,0,27.332-46.83,61.048-46.83S499.531,394,499.531,394z"/>
			<circle fill="#1E1E1E" cx="413.711" cy="410.152" r="4.127"/>
			<circle fill="#1E1E1E" cx="463.263" cy="410.152" r="4.637"/>
			<g>
				<path fill="#646464" d="M426.976,430.672c0,0,10.971,8.419,23.217,0"/>
				<path fill="#191919" d="M426.976,430.672c0,0,0.379,0.123,1.041,0.338c0.656,0.206,1.578,0.493,2.678,0.764
					c0.544,0.152,1.138,0.283,1.759,0.417c0.615,0.15,1.28,0.234,1.945,0.368c0.681,0.062,1.364,0.217,2.073,0.239
					c0.352,0.028,0.706,0.047,1.061,0.087l1.068,0.006c0.715,0.055,1.421-0.048,2.125-0.067c0.706-0.011,1.382-0.182,2.06-0.236
					c0.677-0.068,1.305-0.271,1.932-0.372c0.634-0.086,1.193-0.306,1.742-0.442c0.535-0.165,1.077-0.233,1.504-0.415
					c0.435-0.163,0.834-0.281,1.163-0.386c0.659-0.205,1.066-0.3,1.066-0.3s-0.254,0.308-0.751,0.807
					c-0.25,0.247-0.552,0.557-0.923,0.884c-0.352,0.36-0.829,0.639-1.331,0.989c-0.516,0.325-1.06,0.73-1.715,0.992
					c-0.648,0.27-1.318,0.636-2.07,0.831c-0.377,0.101-0.759,0.203-1.146,0.307c-0.388,0.11-0.785,0.2-1.195,0.232
					c-0.814,0.101-1.646,0.216-2.481,0.176l-1.249-0.039c-0.412-0.046-0.82-0.114-1.225-0.171c-0.815-0.086-1.582-0.35-2.329-0.542
					c-0.729-0.259-1.433-0.505-2.062-0.822c-0.635-0.306-1.216-0.622-1.726-0.962c-0.521-0.312-0.953-0.681-1.343-0.977
					c-0.38-0.316-0.696-0.605-0.942-0.862C427.203,431.014,426.976,430.672,426.976,430.672z"/>
			</g>
			<ellipse fill="#7A7A7A" cx="472.551" cy="422.254" rx="6.633" ry="4.592"/>
			<ellipse fill="#7A7A7A" cx="404.417" cy="422.254" rx="6.633" ry="4.592"/>
		</g>
		<path fill="#7A7A7A" d="M425.122,447.512c-0.001,0.055-0.005,0.108-0.005,0.162c0,7.454,6.043,13.496,13.496,13.496
			s13.495-6.042,13.495-13.496c0-0.054-0.003-0.107-0.004-0.162H425.122z"/>
		<g>
			<g>
				<path fill="#D3D3D3" d="M383.263,396.362L383.263,396.362z"/>
				<circle fill="#D3D3D3" cx="390.023" cy="386.468" r="1.659"/>
				<circle fill="#D3D3D3" cx="398.252" cy="377.749" r="2.815"/>
				<circle fill="#D3D3D3" cx="407.781" cy="370.475" r="3.627"/>
				<circle fill="#D3D3D3" cx="418.486" cy="365.102" r="4.156"/>
				<circle fill="#D3D3D3" cx="430.076" cy="362.062" r="4.441"/>
				<circle fill="#D3D3D3" cx="442.046" cy="361.556" r="4.479"/>
				<circle fill="#D3D3D3" cx="453.841" cy="363.638" r="4.311"/>
				<circle fill="#D3D3D3" cx="464.921" cy="368.198" r="3.881"/>
				<circle fill="#D3D3D3" cx="474.919" cy="374.814" r="3.186"/>
				<circle fill="#D3D3D3" cx="483.693" cy="382.994" r="2.174"/>
				<circle fill="#D3D3D3" cx="491.18" cy="392.365" r="0.746"/>
			</g>
		</g>
	</g>
</g>
</svg>
